<?xml version="1.0" encoding="UTF-8"?>
<svg version="1.1" xmlns="http://www.w3.org/2000/svg" width="512" height="512">
<path d="M0 0 C1.81579647 -0.00543819 3.63158852 -0.01257024 5.44737244 -0.02124023 C10.32143942 -0.03927507 15.19516285 -0.03248925 20.06923485 -0.01972389 C25.20571087 -0.00949212 30.34216034 -0.01901748 35.4786377 -0.02526855 C44.09925538 -0.03251565 52.71973533 -0.02303487 61.34033203 -0.00390625 C71.26180007 0.01785675 81.18293912 0.01080329 91.1043992 -0.01121187 C99.67145527 -0.0294501 108.23841315 -0.03188328 116.80548239 -0.0214572 C121.90089898 -0.01526829 126.99616171 -0.01425811 132.09156799 -0.02760315 C136.88534767 -0.0392846 141.67870932 -0.03091522 146.47244453 -0.00802612 C148.21612929 -0.0028039 149.95985015 -0.0041391 151.70351982 -0.01307678 C177.34828318 -0.13225723 199.02969968 6.53627389 217.76367188 24.70507812 C223.73584981 30.703446 228.10994111 37.0090605 232.07617188 44.51757812 C232.56730469 45.43152344 233.0584375 46.34546875 233.56445312 47.28710938 C240.763336 61.79105335 240.51141724 76.76081971 240.46435547 92.54882812 C240.46842716 94.85327401 240.47377239 97.15771793 240.48028564 99.4621582 C240.49389382 105.68526044 240.48868749 111.90821248 240.47914839 118.13131714 C240.47151802 124.66437159 240.47860675 131.19741376 240.48330688 137.73046875 C240.48970075 149.39980007 240.47981866 161.06906858 240.46452887 172.73838902 C240.4511279 183.29242316 240.45345668 193.84635827 240.46728516 204.40039062 C240.48338425 216.69292721 240.48929211 228.98540077 240.48044837 241.27794647 C240.47578724 247.77166621 240.47510392 254.26531792 240.48505783 260.7590332 C240.493766 266.86590313 240.48763543 272.97258726 240.47037506 279.07943726 C240.46643074 281.31179497 240.46750874 283.5441685 240.47416306 285.77651978 C240.54338406 311.37102528 235.29859392 333.47516239 216.95117188 352.33007812 C202.25597328 366.78021216 182.93789201 374.68551612 162.38867188 374.64257812 C159.95032102 374.617761 157.51411351 374.57263829 155.07617188 374.51757812 C155.12257813 375.40316406 155.16898437 376.28875 155.21679688 377.20117188 C155.83975892 398.5821191 148.88435252 418.58959304 134.40039062 434.53710938 C118.05390972 451.43849204 97.43566097 460.52083715 73.93347168 461.0255127 C70.6726142 461.06346358 67.41331052 461.05187127 64.15234375 461.03515625 C62.33654728 461.04059444 60.52075523 461.04772649 58.70497131 461.05639648 C53.83090433 461.07443132 48.9571809 461.0676455 44.0831089 461.05488014 C38.94663288 461.04464837 33.81018341 461.05417373 28.67370605 461.0604248 C20.05308837 461.0676719 11.43260842 461.05819112 2.81201172 461.0390625 C-7.10945632 461.0172995 -17.03059537 461.02435296 -26.95205545 461.04636812 C-35.51911152 461.06460635 -44.0860694 461.06703953 -52.65313864 461.05661345 C-57.74855523 461.05042454 -62.84381796 461.04941436 -67.93922424 461.0627594 C-72.73300392 461.07444085 -77.52636557 461.06607147 -82.32010078 461.04318237 C-84.06378554 461.03796015 -85.8075064 461.03929535 -87.55117607 461.04823303 C-113.19593943 461.16741348 -134.87735593 454.49888236 -153.61132812 436.33007812 C-159.58350606 430.33171025 -163.95759736 424.02609575 -167.92382812 416.51757812 C-168.66052734 415.14666016 -168.66052734 415.14666016 -169.41210938 413.74804688 C-176.61099225 399.2441029 -176.35907349 384.27433654 -176.31201172 368.48632812 C-176.31608341 366.18188224 -176.32142864 363.87743832 -176.32794189 361.57299805 C-176.34155007 355.34989581 -176.33634374 349.12694377 -176.32680464 342.90383911 C-176.31917427 336.37078466 -176.326263 329.83774249 -176.33096313 323.3046875 C-176.337357 311.63535618 -176.32747491 299.96608767 -176.31218512 288.29676723 C-176.29878415 277.74273309 -176.30111293 267.18879798 -176.31494141 256.63476562 C-176.3310405 244.34222904 -176.33694836 232.04975548 -176.32810462 219.75720978 C-176.32344349 213.26349004 -176.32276017 206.76983833 -176.33271408 200.27612305 C-176.34142225 194.16925312 -176.33529168 188.06256899 -176.31803131 181.95571899 C-176.31408699 179.72336128 -176.31516499 177.49098775 -176.32181931 175.25863647 C-176.39104031 149.66413097 -171.14625017 127.55999386 -152.79882812 108.70507812 C-138.10362953 94.25494409 -118.78554826 86.34964013 -98.23632812 86.39257812 C-95.79797727 86.41739525 -93.36176976 86.46251796 -90.92382812 86.51757812 C-90.97023438 85.63199219 -91.01664062 84.74640625 -91.06445312 83.83398438 C-91.68741517 62.45303715 -84.73200877 42.44556321 -70.24804688 26.49804688 C-50.64203199 6.22648127 -27.44414381 -0.1406728 0 0 Z M-45.92382812 48.51757812 C-53.72171581 58.05384842 -58.11133366 67.95452995 -57.98632812 80.33007812 C-57.97730469 81.49152344 -57.96828125 82.65296875 -57.95898438 83.84960938 C-57.94738281 84.73003906 -57.93578125 85.61046875 -57.92382812 86.51757812 C-57.19736115 86.51904469 -56.47089418 86.52051125 -55.72241306 86.52202225 C-37.97443125 86.55921511 -20.2266557 86.6183936 -2.47882938 86.70148087 C6.10420446 86.74114288 14.68714831 86.77360012 23.27026367 86.78857422 C30.75892017 86.80165778 38.2473776 86.82879128 45.73592192 86.87219119 C49.69418886 86.89465674 53.65221168 86.91049789 57.61054802 86.90946198 C96.73737422 86.91022184 96.73737422 86.91022184 112.01367188 95.76757812 C112.71476074 96.15671387 113.41584961 96.54584961 114.13818359 96.94677734 C119.9315307 100.24559938 125.14375505 104.02422113 130.07617188 108.51757812 C131.00429688 109.30841797 131.00429688 109.30841797 131.95117188 110.11523438 C145.52476775 122.44660384 153.29393198 142.95304528 154.45232391 161.03474617 C154.64814331 165.86333534 154.63757695 170.69004301 154.62207031 175.52172852 C154.63083015 177.35673386 154.6413242 179.1917316 154.65339661 181.02671814 C154.68098231 185.95123638 154.68466743 190.87550203 154.68367672 195.80008626 C154.68682968 200.96772716 154.71249691 206.1352582 154.73565674 211.30284119 C154.77603914 221.06291426 154.79651546 230.82292083 154.80963063 240.5830645 C154.8255612 251.70543458 154.86400199 262.82769244 154.90422392 273.94999707 C154.98637953 296.80581964 155.04062328 319.66163885 155.07617188 342.51757812 C157.43644043 342.40418377 159.79506786 342.27870887 162.15429688 342.14648438 C163.46817383 342.0776001 164.78205078 342.00871582 166.13574219 341.93774414 C177.8633135 340.68723917 188.46366109 334.6673549 196.36132812 326.01367188 C206.05266891 313.56890343 208.23985779 300.62165698 208.20988464 285.31620789 C208.2121502 284.44703934 208.21441576 283.57787079 208.21674997 282.68236381 C208.22302737 279.80019151 208.22226467 276.918067 208.22143555 274.03588867 C208.22443093 271.95701029 208.22783433 269.87813247 208.23161316 267.79925537 C208.24041819 262.17311805 208.24278978 256.54699596 208.24342895 250.92085242 C208.24414136 247.40064636 208.2462793 243.88044413 208.24892616 240.36023903 C208.25816758 228.06478252 208.2622625 215.76933682 208.26147461 203.47387695 C208.26087395 192.03590956 208.27142667 180.59798934 208.28721827 169.16003388 C208.3003176 159.31936856 208.30565751 149.47871862 208.3050192 139.63804466 C208.30476494 133.76972881 208.3075762 127.90145493 208.31819725 122.03314781 C208.32791872 116.51158949 208.32792975 110.99011293 208.32068062 105.46855164 C208.31963984 103.45024304 208.3219673 101.43192925 208.32804108 99.41362953 C208.38169666 80.33812009 207.77757623 62.19603812 194.11132812 47.38867188 C180.46571114 34.38462097 165.38429576 33.21370645 147.51611328 33.24291992 C145.75087774 33.23856641 143.98564409 33.23338114 142.22041321 33.22743225 C137.44966915 33.21409983 132.6790046 33.21345714 127.90824556 33.21599555 C123.91494598 33.21706917 119.92166223 33.21217193 115.92836607 33.20739013 C106.50203656 33.19631488 97.07574692 33.19584638 87.64941406 33.2019043 C77.94844772 33.20794315 68.24762646 33.19563072 58.54668486 33.17433423 C50.19561234 33.15668013 41.84458583 33.15072286 33.49349535 33.15397197 C28.51553738 33.15577888 23.53768292 33.15320802 18.55974197 33.13925743 C13.87614906 33.12662154 9.19278124 33.12867735 4.50919151 33.14166832 C2.79846175 33.14402114 1.08771586 33.14134629 -0.62299538 33.1330452 C-17.46089284 33.05728392 -33.88118055 35.51732243 -45.92382812 48.51757812 Z M-57.92382812 118.51757812 C-60.07923059 144.46952016 -60.07923059 144.46952016 -49.63085938 165.01367188 C-44.03861585 169.94047681 -37.43228385 171.61708562 -30.10864258 171.67871094 C-29.18030106 171.68831848 -28.25195953 171.69792603 -27.29548645 171.70782471 C-26.30272202 171.71207458 -25.30995758 171.71632446 -24.28710938 171.72070312 C-22.73518135 171.72925323 -22.73518135 171.72925323 -21.15190125 171.73797607 C-18.96398943 171.74740944 -16.77606351 171.75395344 -14.58813477 171.7578125 C-11.26553071 171.76749304 -7.94355213 171.79852254 -4.62109375 171.83007812 C-2.48893594 171.83661145 -0.35677373 171.84186062 1.77539062 171.84570312 C2.75803391 171.85804993 3.74067719 171.87039673 4.75309753 171.88311768 C13.80975468 171.85432851 22.13817018 170.2064965 29.31835938 164.39257812 C40.84669106 152.09569099 37.07617188 133.7830561 37.07617188 118.51757812 C5.72617188 118.51757812 -25.62382812 118.51757812 -57.92382812 118.51757812 Z M-130.92382812 133.51757812 C-141.71527868 145.82657641 -144.08846473 159.92804103 -144.05754089 175.71894836 C-144.05980645 176.58811691 -144.06207201 177.45728546 -144.06440622 178.35279244 C-144.07068362 181.23496474 -144.06992092 184.11708925 -144.0690918 186.99926758 C-144.07208718 189.07814596 -144.07549058 191.15702378 -144.07926941 193.23590088 C-144.08807444 198.8620382 -144.09044603 204.48816029 -144.0910852 210.11430383 C-144.09179761 213.63450989 -144.09393555 217.15471212 -144.09658241 220.67491722 C-144.10582383 232.97037373 -144.10991875 245.26581943 -144.10913086 257.5612793 C-144.1085302 268.99924669 -144.11908292 280.43716691 -144.13487452 291.87512237 C-144.14797385 301.71578769 -144.15331376 311.55643763 -144.15267545 321.39711159 C-144.15242119 327.26542744 -144.15523245 333.13370132 -144.1658535 339.00200844 C-144.17557497 344.52356676 -144.175586 350.04504332 -144.16833687 355.56660461 C-144.16729609 357.58491321 -144.16962355 359.603227 -144.17569733 361.62152672 C-144.22935291 380.69703616 -143.62523248 398.83911813 -129.95898438 413.64648438 C-116.31336739 426.65053528 -101.23195201 427.8214498 -83.36376953 427.79223633 C-81.59853399 427.79658984 -79.83330034 427.80177511 -78.06806946 427.807724 C-73.2973254 427.82105642 -68.52666085 427.82169911 -63.75590181 427.8191607 C-59.76260223 427.81808708 -55.76931848 427.82298432 -51.77602232 427.82776612 C-42.34969281 427.83884137 -32.92340317 427.83930987 -23.49707031 427.83325195 C-13.79610397 427.8272131 -4.09528271 427.83952553 5.60565889 427.86082202 C13.95673141 427.87847612 22.30775792 427.88443339 30.6588484 427.88118428 C35.63680637 427.87937737 40.61466083 427.88194823 45.59260178 427.89589882 C50.27619469 427.90853471 54.95956251 427.9064789 59.64315224 427.89348793 C61.353882 427.89113511 63.06462789 427.89380996 64.77533913 427.90211105 C81.0433711 427.97530825 96.00856111 425.72911897 108.45507812 414.26757812 C118.19560891 403.75249911 122.23065738 392.38036096 122.21661377 378.29660034 C122.21958489 377.36495595 122.22255601 376.43331156 122.22561717 375.47343552 C122.23429239 372.34995703 122.23581144 369.22651693 122.23730469 366.10302734 C122.24193374 363.86400775 122.24695852 361.62498895 122.25234985 359.38597107 C122.26546857 353.30101218 122.27191794 347.21606432 122.27636051 341.1310935 C122.27929245 337.32800619 122.28339752 333.52492189 122.28786469 329.72183609 C122.29997263 319.18228469 122.31035465 308.64273591 122.31373978 298.10317802 C122.31395934 297.42903784 122.31417891 296.75489765 122.31440513 296.06032897 C122.31462341 295.38461643 122.31484168 294.70890389 122.31506658 294.01271522 C122.31551003 292.64356796 122.3159566 291.2744207 122.31640625 289.90527344 C122.31662768 289.22613558 122.31684911 288.54699772 122.31707725 287.84727992 C122.32102205 276.85220357 122.33846716 265.85719363 122.36176577 254.86214291 C122.38551936 243.56067641 122.39768586 232.259242 122.39910769 220.95774662 C122.40015476 214.61767504 122.40604169 208.27769712 122.42392731 201.93764877 C122.44043344 195.97045825 122.44255104 190.00343153 122.4337883 184.03622627 C122.43301926 181.85098519 122.43734303 179.66573521 122.44724655 177.48051643 C122.52393518 159.49861843 121.13245805 145.90746988 108.26367188 132.20507812 C99.13129159 123.61817721 89.13090494 119.73360032 76.74804688 118.94335938 C75.49604492 118.86126221 74.24404297 118.77916504 72.95410156 118.69458008 C72.00438477 118.63616943 71.05466797 118.57775879 70.07617188 118.51757812 C70.06215332 119.89139648 70.06215332 119.89139648 70.04785156 121.29296875 C70.00316372 124.77511575 69.94126441 128.25615651 69.86865234 131.73779297 C69.84086783 133.22889517 69.81944811 134.72013303 69.80517578 136.21142578 C69.61235408 155.24935542 65.93735581 171.99696951 52.42382812 186.23242188 C38.88825184 199.40765003 22.92386862 204.01976061 4.26757812 203.91601562 C3.0983934 203.9188858 1.92920868 203.92175598 0.72459412 203.92471313 C-1.72828663 203.92673893 -4.18118409 203.9213141 -6.6340332 203.90869141 C-10.34884459 203.89263209 -14.06256575 203.90858477 -17.77734375 203.92773438 C-39.33007485 203.94789841 -57.53060666 202.02617381 -73.92382812 186.51757812 C-87.84273361 171.8158871 -90.33598237 154.6685589 -90.61132812 135.26757812 C-90.64458175 133.63604172 -90.6790785 132.00453016 -90.71484375 130.37304688 C-90.79881254 126.42136355 -90.8660463 122.46972752 -90.92382812 118.51757812 C-106.18602641 118.40988278 -119.92245171 122.6689986 -130.92382812 133.51757812 Z " fill="#FFFFFF" transform="translate(223.923828125,25.482421875)"/>
<path d="M0 0 C1.12150452 -0.00571014 2.24300903 -0.01142029 3.39849854 -0.01730347 C4.62971436 -0.01842133 5.86093018 -0.01953918 7.12945557 -0.02069092 C9.07371429 -0.02813828 9.07371429 -0.02813828 11.05725098 -0.03573608 C14.61528059 -0.04885401 18.17329134 -0.05530408 21.73134136 -0.05974674 C23.95544119 -0.062679 26.17953588 -0.06678414 28.40363312 -0.07125092 C35.36562824 -0.08492546 42.32761159 -0.09459181 49.28961921 -0.09845281 C57.31980524 -0.10293088 65.34982084 -0.12046718 73.37995505 -0.1494534 C79.59069279 -0.17109192 85.80138266 -0.18115827 92.01215768 -0.18249393 C95.7196764 -0.18354058 99.4270349 -0.18941835 103.13451385 -0.20731354 C107.27355738 -0.22690285 111.41224576 -0.22249663 115.55133057 -0.21600342 C116.77444946 -0.2252182 117.99756836 -0.23443298 119.25775146 -0.243927 C126.4240348 -0.2086951 131.68864652 0.20364523 137.56011963 4.61309814 C141.24703439 8.75833104 142.54451901 12.22429479 142.76324463 17.78497314 C142.36007827 23.57329022 139.0215784 27.0494706 135.09918213 30.94122314 C131.99798932 33.42056219 128.87106955 33.26959684 125.07774353 33.28088379 C123.92955139 33.28659393 122.78135925 33.29230408 121.59837341 33.29818726 C120.33753433 33.29930511 119.07669525 33.30042297 117.77764893 33.30157471 C116.43720361 33.30620375 115.09675961 33.31122852 113.75631714 33.31661987 C110.11364661 33.329738 106.47099451 33.33618773 102.82830405 33.34063053 C100.55194905 33.34356232 98.27559907 33.34766735 95.9992466 33.3521347 C88.87547094 33.36580835 81.75170677 33.37547555 74.6279189 33.3793366 C66.40755291 33.38381658 58.18735327 33.40136217 49.96703786 33.43033719 C43.6110941 33.45196211 37.2551971 33.46204131 30.89921695 33.46337771 C27.10398229 33.46442521 23.30890401 33.47032092 19.51370811 33.48819733 C15.94237096 33.50469204 12.37130753 33.50682688 8.79994583 33.49805832 C6.86880248 33.49692244 4.93766815 33.5106292 3.00657654 33.52481079 C-3.70032126 33.4925178 -8.85483897 33.37477895 -14.04534912 28.64044189 C-18.31722147 23.15415767 -19.03670758 18.91926616 -18.40081787 12.14044189 C-16.50983077 7.35735687 -12.51769494 4.09710815 -8.40081787 1.14044189 C-5.32614458 0.1155508 -3.22113215 0.00981433 0 0 Z " fill="#FFFFFF" transform="translate(151.40081787109375,281.85955810546875)"/>
<path d="M0 0 C1.16364578 -0.0071553 2.32729156 -0.01431061 3.52619934 -0.02168274 C4.80933517 -0.02437164 6.09247101 -0.02706055 7.41448975 -0.02983093 C8.77449213 -0.03609494 10.13449279 -0.04274168 11.49449158 -0.04974365 C15.19506525 -0.06716059 18.895626 -0.07770757 22.59623051 -0.08594918 C24.90825945 -0.09109853 27.22028438 -0.09717433 29.53231049 -0.10346031 C36.76607727 -0.12251548 43.99983382 -0.13674517 51.23362088 -0.14507228 C59.58365531 -0.15484293 67.93342451 -0.18115636 76.28336549 -0.22157317 C82.73695165 -0.25173867 89.19046182 -0.26654161 95.64411712 -0.26985329 C99.49866606 -0.27220356 103.35293178 -0.28116026 107.20740509 -0.30631447 C110.83541747 -0.32960771 114.46296042 -0.33382373 118.09102821 -0.32355309 C120.05321395 -0.32282222 122.01537591 -0.34190535 123.97746277 -0.36161804 C134.72872415 -0.298078 134.72872415 -0.298078 139.52288818 4.14717102 C143.46278859 8.7259742 144.94790528 13.16657336 144.52288818 19.14717102 C142.91342217 24.51521354 140.23302821 28.04839469 135.52288818 31.14717102 C132.90735554 32.45493734 130.97599959 32.28200967 128.04577637 32.29434204 C126.88213058 32.30149734 125.7184848 32.30865265 124.51957703 32.31602478 C123.23644119 32.31871368 121.95330536 32.32140259 120.63128662 32.32417297 C119.27128424 32.33043698 117.91128357 32.33708372 116.55128479 32.34408569 C112.85071112 32.36150263 109.15015037 32.37204961 105.44954586 32.38029122 C103.13751692 32.38544057 100.82549199 32.39151637 98.51346588 32.39780235 C91.2796991 32.41685752 84.04594254 32.43108721 76.81215549 32.43941432 C68.46212106 32.44918497 60.11235185 32.4754984 51.76241088 32.51591522 C45.30882472 32.54608071 38.85531455 32.56088365 32.40165925 32.56419533 C28.54711031 32.5665456 24.69284459 32.5755023 20.83837128 32.60065651 C17.2103589 32.62394975 13.58281595 32.62816577 9.95474815 32.61789513 C7.99256241 32.61716426 6.03040045 32.63624739 4.0683136 32.65596008 C-6.66525684 32.59252459 -6.66525684 32.59252459 -11.47711182 28.14717102 C-15.558533 23.62451512 -16.80075717 20.35570749 -16.68804932 14.20185852 C-16.19855434 9.43381485 -13.94530225 6.35604425 -10.41461182 3.33467102 C-6.48659626 0.40955306 -4.82430454 0.02030395 0 0 Z " fill="#FFFFFF" transform="translate(149.47711181640625,367.8528289794922)"/>
</svg>
